<svg width="119.000000" height="119.000000" viewBox="0 0 119 119" fill="none" xmlns="http://www.w3.org/2000/svg" xmlns:xlink="http://www.w3.org/1999/xlink">
	<desc>
			Created with Pixso.
	</desc>
	<defs>
		<linearGradient x1="59.522888" y1="31.014328" x2="59.522888" y2="87.254593" id="paint_linear_2_180_0" gradientUnits="userSpaceOnUse">
			<stop stop-color="#FFC227"/>
			<stop offset="1.000000" stop-color="#FFB300"/>
		</linearGradient>
	</defs>
	<path id="Vector" d="M88.02 59.51C88.02 75.25 75.26 88.01 59.52 88.01C43.78 88.01 31.02 75.25 31.02 59.51C31.02 43.77 43.78 31.01 59.52 31.01C75.26 31.01 88.02 43.77 88.02 59.51Z" fill="url(#paint_linear_2_180_0)" fill-opacity="1.000000" fill-rule="evenodd"/>
	<path id="Vector" d="M86.3 5.95L79.61 22.12C77.42 27.38 69.52 24.11 71.71 18.85L78.4 2.67C80.59 -2.59 88.49 0.68 86.3 5.95ZM47.28 100.15L40.58 116.32C38.4 121.59 30.5 118.32 32.68 113.05L39.38 96.88C41.56 91.61 49.46 94.88 47.28 100.15ZM116.32 40.59L100.15 47.29C94.88 49.47 91.61 41.57 96.88 39.39L113.05 32.69C118.32 30.51 121.59 38.41 116.32 40.59ZM22.11 79.61L5.94 86.31C0.67 88.49 -2.6 80.59 2.67 78.41L18.84 71.71C24.11 69.53 27.38 77.43 22.11 79.61ZM113.05 86.32L96.88 79.62C91.61 77.44 94.88 69.54 100.15 71.72L116.32 78.42C121.59 80.6 118.32 88.5 113.05 86.32ZM18.84 47.29L2.67 40.6C-2.6 38.41 0.67 30.51 5.94 32.7L22.11 39.39C27.38 41.58 24.11 49.48 18.84 47.29ZM40.58 2.67L47.27 18.84C49.46 24.11 41.56 27.38 39.37 22.11L32.68 5.94C30.49 0.67 38.39 -2.6 40.58 2.67ZM79.6 96.87L86.3 113.04C88.48 118.31 80.58 121.58 78.4 116.32L71.7 100.15C69.52 94.88 77.42 91.61 79.6 96.87Z" fill="#FFB300" fill-opacity="1.000000" fill-rule="nonzero"/>
</svg>
